<?xml version="1.0" encoding="UTF-8" standalone="no"?>
<!DOCTYPE svg PUBLIC "-//W3C//DTD SVG 1.1//EN" "http://www.w3.org/Graphics/SVG/1.1/DTD/svg11.dtd">
<svg width="100%" height="100%" viewBox="0 0 915 205" version="1.1" xmlns="http://www.w3.org/2000/svg" xmlns:xlink="http://www.w3.org/1999/xlink" xml:space="preserve" xmlns:serif="http://www.serif.com/" style="fill-rule:evenodd;clip-rule:evenodd;stroke-linejoin:round;stroke-miterlimit:2;">
    <g transform="matrix(1,0,0,1,-1072,-814)">
        <g transform="matrix(1,0,0,1,0,-578.07338)">
            <g transform="matrix(0.318742,0,0,0.318742,1074.266958,1085.685492)">
                <g transform="matrix(496.063487,0,0,496.063487,2842.002633,1500)">
                </g>
                <text x="590.868px" y="1500px" style="font-family:'Inter-ExtraBoldItalic', 'Inter';font-weight:800;font-style:italic;font-size:496.063px;fill:rgb(219,219,219);">orbitr<tspan x="1960.68px " y="1500px ">a</tspan>ck</text>
            </g>
            <g transform="matrix(0.244311,-1.081,1.081,0.244311,-400.935544,2341.444227)">
                <g transform="matrix(-0.138186,0.185122,-0.255427,-0.190666,1523.856291,1404.605057)">
                    <path d="M556.695,1140.24C567.891,1140.386 639.227,1137.765 700.058,1239.046C792.253,1392.547 784.849,1659.294 681.899,1791.653C619.171,1872.301 536.79,1878.646 474.089,1833.505C380.665,1766.245 331.992,1591.382 354.137,1421.18C373.841,1269.737 449.735,1143.868 552.388,1140.314L556.695,1140.24ZM556.694,1157.949C556.361,1157.96 556.012,1157.968 555.647,1157.972C460.961,1159.06 375.972,1312.562 380.035,1507.924C384.21,1708.694 482.441,1861.353 580.743,1832.94C671.044,1806.839 747.005,1639.502 731.469,1444.281C718.422,1280.329 642.092,1159.418 557.742,1157.978C557.376,1157.972 557.027,1157.962 556.694,1157.949Z" style="fill:rgb(178,178,178);"/>
                </g>
                <g transform="matrix(-0.011711,0.139423,-0.139423,-0.011711,1289.818135,1156.512732)">
                    <circle cx="505.063" cy="1205.782" r="174.051" style="fill:rgb(193,238,202);"/>
                </g>
                <g transform="matrix(-0.0167,0.198822,-0.198822,-0.0167,1248.053372,1139.267147)">
                    <circle cx="505.063" cy="1205.782" r="174.051" style="fill:rgb(193,238,202);"/>
                </g>
            </g>
        </g>
    </g>
</svg>
