<?xml version="1.0" encoding="UTF-8" standalone="no"?>
<!DOCTYPE svg PUBLIC "-//W3C//DTD SVG 1.1//EN" "http://www.w3.org/Graphics/SVG/1.1/DTD/svg11.dtd">
<svg width="100%" height="100%" viewBox="0 0 915 205" version="1.1" xmlns="http://www.w3.org/2000/svg" xmlns:xlink="http://www.w3.org/1999/xlink" xml:space="preserve" xmlns:serif="http://www.serif.com/" style="fill-rule:evenodd;clip-rule:evenodd;stroke-linejoin:round;stroke-miterlimit:2;">
    <g transform="matrix(1,0,0,1,-1072,-814)">
        <g transform="matrix(1,0,0,1,0,-578.07338)">
            <g transform="matrix(0.318742,0,0,0.318742,1074.266958,1085.685492)">
                <path d="M721.754,1505.109C806.486,1505.109 867.085,1449.09 881.002,1366.119C894.566,1282.444 852.112,1225.897 767.027,1225.897C681.942,1225.897 621.343,1281.915 607.779,1365.062C593.863,1448.562 636.317,1505.109 721.754,1505.109ZM731.443,1440.106C700.086,1440.106 687.931,1410.159 695.33,1365.591C702.553,1320.494 725.63,1289.666 757.338,1289.666C788.518,1289.666 800.673,1319.966 793.451,1364.358C786.052,1409.63 762.975,1440.106 731.443,1440.106Z" style="fill:rgb(219,219,219);fill-rule:nonzero;"/>
                <path d="M902.845,1500L988.987,1500L1013.297,1353.083C1018.934,1320.846 1045.358,1299.179 1075.833,1299.179C1086.579,1299.179 1101.2,1300.764 1109.127,1303.759L1121.811,1228.715C1114.588,1226.954 1106.309,1225.721 1098.206,1225.721C1068.611,1225.721 1042.011,1242.984 1026.157,1278.744L1023.338,1278.744L1031.618,1229.42L947.942,1229.42L902.845,1500Z" style="fill:rgb(219,219,219);fill-rule:nonzero;"/>
                <path d="M1111.77,1500L1197.031,1500L1204.077,1456.136L1207.424,1456.136C1213.766,1481.151 1234.2,1503.875 1275.069,1503.875C1334.963,1503.875 1391.334,1457.017 1406.484,1364.886C1422.338,1269.408 1378.651,1225.897 1322.104,1225.897C1279.297,1225.897 1251.288,1250.911 1237.195,1275.75L1235.433,1275.75L1257.806,1139.227L1171.664,1139.227L1111.77,1500ZM1218.698,1364.71C1225.745,1320.494 1248.821,1293.189 1280.354,1293.189C1312.415,1293.189 1325.098,1321.199 1318.052,1364.71C1311.006,1408.397 1288.457,1436.759 1256.749,1436.759C1225.216,1436.759 1211.652,1408.574 1218.698,1364.71Z" style="fill:rgb(219,219,219);fill-rule:nonzero;"/>
                <path d="M1429.208,1500L1515.35,1500L1560.447,1229.42L1474.305,1229.42L1429.208,1500ZM1523.453,1197.711C1547.763,1197.711 1570.135,1179.038 1573.306,1156.49C1576.301,1133.766 1559.39,1115.445 1534.904,1115.445C1510.594,1115.445 1488.221,1133.766 1484.698,1156.49C1481.351,1179.038 1498.967,1197.711 1523.453,1197.711Z" style="fill:rgb(219,219,219);fill-rule:nonzero;"/>
                <path d="M1767.786,1229.42L1718.813,1229.42L1729.559,1164.593L1643.417,1164.593L1632.672,1229.42L1597.088,1229.42L1586.342,1292.837L1622.278,1292.837L1600.435,1424.428C1590.394,1479.037 1621.398,1506.518 1683.229,1503.875C1703.664,1502.995 1719.342,1498.767 1728.502,1496.125L1725.684,1433.94C1721.632,1434.645 1712.648,1436.583 1706.306,1436.583C1692.39,1436.583 1685.343,1430.946 1687.986,1414.915L1708.244,1292.837L1757.04,1292.837L1767.786,1229.42Z" style="fill:rgb(219,219,219);fill-rule:nonzero;"/>
                <path d="M1766.729,1500L1852.87,1500L1877.18,1353.083C1882.817,1320.846 1909.241,1299.179 1939.717,1299.179C1950.462,1299.179 1965.084,1300.764 1973.011,1303.759L1985.694,1228.715C1978.472,1226.954 1970.192,1225.721 1962.089,1225.721C1932.494,1225.721 1905.894,1242.984 1890.04,1278.744L1887.221,1278.744L1895.501,1229.42L1811.825,1229.42L1766.729,1500Z" style="fill:rgb(219,219,219);fill-rule:nonzero;"/>
                <path d="M2041.008,1504.58C2078.706,1504.58 2107.596,1489.959 2126.621,1462.302L2128.735,1462.302L2122.393,1500L2203.427,1500L2234.254,1316.09C2243.767,1258.838 2197.79,1225.897 2129.44,1225.897C2056.51,1225.897 2008.947,1262.538 1994.15,1311.862L2073.069,1314.681C2079.411,1297.241 2096.146,1286.848 2118.694,1286.848C2139.833,1286.848 2151.107,1297.065 2148.289,1315.209L2148.289,1316.09C2145.294,1332.473 2126.621,1336.172 2079.939,1340.224C2024.449,1344.804 1975.477,1365.062 1965.436,1424.956C1956.452,1478.332 1989.57,1504.58 2041.008,1504.58ZM2077.297,1448.209C2057.039,1448.209 2044.884,1438.344 2047.702,1420.728C2050.344,1403.113 2066.023,1392.719 2091.39,1389.02C2107.244,1386.378 2128.031,1383.207 2138.248,1378.098L2134.196,1403.817C2129.616,1430.241 2104.601,1448.209 2077.297,1448.209Z" style="fill:rgb(219,219,219);fill-rule:nonzero;"/>
                <path d="M2381.523,1505.109C2457.8,1505.109 2511.881,1461.069 2525.621,1393.952L2445.293,1393.952C2437.013,1422.49 2417.46,1438.344 2393.502,1438.344C2363.379,1438.344 2348.053,1412.801 2355.804,1364.71C2363.379,1316.971 2387.689,1291.428 2418.34,1291.428C2442.474,1291.428 2455.686,1308.339 2454.453,1335.82L2534.958,1335.82C2544.294,1269.232 2502.897,1225.897 2427.853,1225.897C2342.768,1225.897 2281.465,1282.62 2268.077,1365.591C2254.16,1448.209 2295.734,1505.109 2381.523,1505.109Z" style="fill:rgb(219,219,219);fill-rule:nonzero;"/>
                <path d="M2552.045,1500L2638.187,1500L2651.751,1418.615L2672.714,1397.652L2720.101,1500L2819.63,1500L2745.291,1347.446L2860.852,1229.42L2763.26,1229.42L2670.6,1326.307L2667.077,1326.307L2698.081,1139.227L2611.939,1139.227L2552.045,1500Z" style="fill:rgb(219,219,219);fill-rule:nonzero;"/>
            </g>
            <g transform="matrix(0.244311,-1.081,1.081,0.244311,-400.935544,2341.444227)">
                <g transform="matrix(-0.138186,0.185122,-0.255427,-0.190666,1523.856291,1404.605057)">
                    <path d="M556.695,1140.24C567.891,1140.386 639.227,1137.765 700.058,1239.046C792.253,1392.547 784.849,1659.294 681.899,1791.653C619.171,1872.301 536.79,1878.646 474.089,1833.505C380.665,1766.245 331.992,1591.382 354.137,1421.18C373.841,1269.737 449.735,1143.868 552.388,1140.314L556.695,1140.24ZM556.694,1157.949C556.361,1157.96 556.012,1157.968 555.647,1157.972C460.961,1159.06 375.972,1312.562 380.035,1507.924C384.21,1708.694 482.441,1861.353 580.743,1832.94C671.044,1806.839 747.005,1639.502 731.469,1444.281C718.422,1280.329 642.092,1159.418 557.742,1157.978C557.376,1157.972 557.027,1157.962 556.694,1157.949Z" style="fill:rgb(178,178,178);"/>
                </g>
                <g transform="matrix(-0.011711,0.139423,-0.139423,-0.011711,1289.818135,1156.512732)">
                    <circle cx="505.063" cy="1205.782" r="174.051" style="fill:rgb(193,238,202);"/>
                </g>
                <g transform="matrix(-0.0167,0.198822,-0.198822,-0.0167,1248.053372,1139.267147)">
                    <circle cx="505.063" cy="1205.782" r="174.051" style="fill:rgb(193,238,202);"/>
                </g>
            </g>
        </g>
    </g>
</svg>
